<svg xmlns="http://www.w3.org/2000/svg" xmlns:xlink="http://www.w3.org/1999/xlink" width="1920" zoomAndPan="magnify" viewBox="0 0 1440 809.999993" height="1080" preserveAspectRatio="xMidYMid meet" version="1.0"><defs><clipPath id="308d088af8"><path d="M 503.511719 354.613281 L 553.621094 354.613281 L 553.621094 425.898438 L 503.511719 425.898438 Z M 503.511719 354.613281 " clip-rule="nonzero"/></clipPath><clipPath id="51752f2fe2"><path d="M 537.355469 432.203125 C 543.679688 429.773438 560.761719 418.691406 565.277344 416.164062 C 567.816406 414.742188 574.351562 411.292969 573.75 408.441406 C 573.378906 406.65625 567.863281 406.769531 564.308594 401.644531 C 558.128906 392.734375 554.386719 393.144531 546.648438 385.5625 C 538.175781 377.265625 531.535156 367.203125 522.761719 359.230469 C 521.519531 358.097656 516.453125 354 514.691406 355.070312 C 512.546875 356.375 511.023438 361.789062 510.449219 375.050781 C 510.222656 380.269531 509.570312 414.449219 505.546875 425.191406 C 504.503906 427.988281 502.261719 439.351562 505.769531 440.835938 C 511.980469 443.453125 531.578125 434.425781 537.355469 432.203125 Z M 537.355469 432.203125 " clip-rule="nonzero"/></clipPath><clipPath id="3d916309ee"><path d="M 539.042969 452 L 587.789062 452 L 587.789062 473.6875 L 539.042969 473.6875 Z M 539.042969 452 " clip-rule="nonzero"/></clipPath><clipPath id="61096f96ae"><path d="M 586 453 L 606.039062 453 L 606.039062 460 L 586 460 Z M 586 453 " clip-rule="nonzero"/></clipPath><clipPath id="a575e65e32"><path d="M 833.636719 335.695312 L 1063.886719 335.695312 L 1063.886719 473.695312 L 833.636719 473.695312 Z M 833.636719 335.695312 " clip-rule="nonzero"/></clipPath><clipPath id="1e1953921f"><path d="M 53.195312 19.613281 L 103 19.613281 L 103 90.898438 L 53.195312 90.898438 Z M 53.195312 19.613281 " clip-rule="nonzero"/></clipPath><clipPath id="4576ae94b2"><path d="M 69.460938 97.203125 C 63.136719 94.773438 46.058594 83.691406 41.539062 81.164062 C 39.003906 79.742188 32.464844 76.292969 33.066406 73.441406 C 33.441406 71.65625 38.953125 71.769531 42.511719 66.644531 C 48.6875 57.734375 52.429688 58.144531 60.167969 50.5625 C 68.640625 42.265625 75.28125 32.203125 84.054688 24.230469 C 85.296875 23.097656 90.367188 19 92.128906 20.070312 C 94.269531 21.375 95.792969 26.789062 96.367188 40.050781 C 96.597656 45.269531 97.246094 79.449219 101.269531 90.191406 C 102.316406 92.988281 104.558594 104.351562 101.046875 105.835938 C 94.839844 108.453125 75.242188 99.425781 69.460938 97.203125 Z M 69.460938 97.203125 " clip-rule="nonzero"/></clipPath><clipPath id="304f175af1"><path d="M 19.03125 117 L 67.773438 117 L 67.773438 138.6875 L 19.03125 138.6875 Z M 19.03125 117 " clip-rule="nonzero"/></clipPath><clipPath id="d6a28f8143"><path d="M 0.777344 118 L 21 118 L 21 125 L 0.777344 125 Z M 0.777344 118 " clip-rule="nonzero"/></clipPath><clipPath id="bb88633982"><rect x="0" width="231" y="0" height="139"/></clipPath></defs><path fill="#f7b274" d="M 516.484375 344.011719 C 513.167969 335.695312 474.390625 355.796875 456.171875 368.71875 C 431.019531 386.558594 413.988281 407.800781 380.714844 422.238281 C 375.84375 424.355469 377.796875 432.949219 389.707031 435.113281 C 394.929688 436.066406 408.425781 441.066406 413.367188 443.007812 C 425.917969 447.933594 436.53125 451.1875 449.761719 453.742188 C 472.167969 458.0625 488.0625 456.167969 510.023438 449.957031 C 531.984375 443.746094 552.101562 429.457031 573.601562 421.800781 C 580.257812 419.4375 583.683594 414.445312 578.324219 412.113281 C 550.617188 400.054688 527.703125 372.144531 516.484375 344.011719 " fill-opacity="1" fill-rule="nonzero"/><path fill="#ffcea6" d="M 535.972656 437.605469 C 544 434.523438 575.722656 422.257812 581.460938 419.050781 C 584.679688 417.25 587.648438 413.871094 586.886719 410.253906 C 586.410156 407.988281 584.605469 406.28125 582.855469 404.769531 C 572.453125 395.78125 560.851562 388.191406 551.023438 378.566406 C 540.273438 368.039062 531.84375 355.265625 520.710938 345.140625 C 519.132812 343.707031 513.941406 340.816406 511.703125 342.175781 C 508.984375 343.832031 505.808594 348.390625 505.078125 365.226562 C 504.792969 371.847656 504.15625 377.921875 504.671875 384.527344 C 505.824219 399.328125 503.964844 415.234375 498.859375 428.871094 C 497.53125 432.417969 493.574219 445.707031 498.03125 447.589844 C 505.910156 450.917969 528.636719 440.425781 535.972656 437.605469 " fill-opacity="1" fill-rule="nonzero"/><path fill="#f7b274" d="M 536.972656 431.773438 C 543.640625 429.210938 569.992188 419.023438 574.757812 416.359375 C 577.433594 414.863281 579.898438 412.058594 579.265625 409.050781 C 578.871094 407.167969 577.367188 405.75 575.917969 404.496094 C 567.277344 397.027344 557.636719 390.722656 549.476562 382.730469 C 540.542969 373.984375 533.542969 363.371094 524.292969 354.960938 C 522.980469 353.769531 518.667969 351.367188 516.8125 352.496094 C 514.550781 353.875 512.082031 355.472656 510.941406 369.699219 C 510.503906 375.1875 510.542969 382.191406 510.96875 387.679688 C 511.925781 399.976562 510.382812 413.191406 506.140625 424.515625 C 505.039062 427.460938 502.867188 438.394531 506.570312 439.957031 C 513.113281 442.722656 530.878906 434.117188 536.972656 431.773438 " fill-opacity="1" fill-rule="nonzero"/><path fill="#e59552" d="M 537.355469 432.203125 C 543.679688 429.773438 560.761719 418.691406 565.277344 416.164062 C 567.816406 414.742188 574.351562 411.292969 573.75 408.441406 C 573.378906 406.65625 567.863281 406.769531 564.308594 401.644531 C 558.128906 392.734375 554.386719 393.144531 546.648438 385.5625 C 538.175781 377.265625 531.535156 367.203125 522.761719 359.230469 C 521.519531 358.097656 516.453125 354 514.691406 355.070312 C 512.546875 356.375 511.023438 361.789062 510.449219 375.050781 C 510.222656 380.269531 509.570312 414.449219 505.546875 425.191406 C 504.503906 427.988281 502.261719 439.351562 505.769531 440.835938 C 511.980469 443.453125 531.578125 434.425781 537.355469 432.203125 " fill-opacity="1" fill-rule="nonzero"/><g clip-path="url(#308d088af8)"><g clip-path="url(#51752f2fe2)"><path fill="#d3792f" d="M 494.109375 342.597656 C 504.996094 366.039062 519.953125 369.507812 524.097656 385.214844 C 528.015625 400.0625 559.171875 402.269531 552.394531 410.105469 C 541.050781 415.800781 488.425781 429.257812 467.070312 424.953125 C 464.714844 424.476562 468.929688 398.417969 474.945312 378.257812 C 479.953125 361.472656 492.738281 339.644531 494.109375 342.597656 " fill-opacity="1" fill-rule="nonzero"/></g></g><path fill="#e59552" d="M 393.796875 422.558594 C 395.402344 422.503906 397.015625 423.234375 398.035156 424.480469 C 398.386719 424.910156 398.675781 425.421875 398.679688 425.976562 C 398.683594 426.957031 397.808594 427.703125 396.953125 428.183594 C 393.589844 430.078125 389.4375 430.15625 385.703125 429.183594 C 384.515625 428.875 383.160156 428.242188 382.996094 427.023438 C 382.933594 426.566406 383.105469 426.039062 383.519531 425.835938 C 384.320312 425.449219 385.222656 426.171875 386.089844 425.761719 C 386.796875 425.433594 387.441406 424.972656 388.179688 424.644531 C 389.996094 423.839844 391.746094 422.625 393.796875 422.558594 " fill-opacity="1" fill-rule="nonzero"/><path fill="#e59552" d="M 404.105469 423.902344 C 404.207031 424.332031 404.539062 424.65625 404.820312 424.996094 C 405.105469 425.332031 405.359375 425.761719 405.253906 426.191406 C 405.164062 426.539062 404.851562 426.789062 404.515625 426.914062 C 404.179688 427.039062 403.816406 427.058594 403.460938 427.105469 C 402.816406 427.191406 402.183594 427.363281 401.582031 427.621094 C 401.46875 427.667969 401.34375 427.722656 401.21875 427.691406 C 401.117188 427.664062 401.039062 427.582031 400.96875 427.5 C 399.199219 425.480469 402.730469 424.484375 404.105469 423.902344 " fill-opacity="1" fill-rule="nonzero"/><path fill="#e59552" d="M 400.007812 430.941406 C 400.160156 430.828125 400.328125 430.714844 400.515625 430.710938 C 400.722656 430.710938 400.898438 430.84375 401.078125 430.945312 C 402.136719 431.558594 403.671875 431.277344 404.4375 432.230469 C 404.628906 432.476562 404.746094 432.773438 404.9375 433.015625 C 405.265625 433.429688 405.777344 433.640625 406.226562 433.914062 C 406.675781 434.191406 407.109375 434.621094 407.09375 435.148438 C 407.089844 435.328125 407.03125 435.503906 407 435.679688 C 406.910156 436.222656 407.085938 436.804688 407.460938 437.203125 C 406.609375 437.800781 405.429688 437.671875 404.472656 437.257812 C 403.515625 436.84375 402.683594 436.183594 401.742188 435.734375 C 400.625 435.203125 399.035156 434.992188 398.171875 434.035156 C 397.101562 432.855469 399.171875 431.566406 400.007812 430.941406 " fill-opacity="1" fill-rule="nonzero"/><path fill="#e59552" d="M 488.1875 421.972656 C 487.980469 422.230469 487.765625 422.496094 487.683594 422.816406 C 487.527344 423.421875 487.925781 424.085938 488.492188 424.34375 C 489.0625 424.601562 489.746094 424.503906 490.296875 424.210938 C 490.851562 423.917969 491.289062 423.449219 491.667969 422.953125 C 491.941406 422.597656 492.199219 422.214844 492.558594 421.949219 C 493.523438 421.242188 494.972656 421.511719 495.910156 420.769531 C 496.453125 420.335938 496.710938 419.644531 496.910156 418.980469 C 496.957031 418.816406 497.003906 418.640625 496.949219 418.480469 C 496.890625 418.3125 496.730469 418.203125 496.578125 418.113281 C 495.226562 417.316406 493.148438 417.070312 491.734375 417.886719 C 490.308594 418.707031 489.21875 420.707031 488.1875 421.972656 " fill-opacity="1" fill-rule="nonzero"/><path fill="#e59552" d="M 478.21875 449.859375 C 480.953125 449.007812 483.722656 447.789062 485.492188 445.53125 C 488.941406 441.128906 487.722656 433.980469 491.898438 430.269531 C 492.964844 432.042969 492.5625 434.296875 492.132812 436.320312 C 491.757812 438.058594 491.386719 439.796875 491.015625 441.535156 C 490.691406 443.035156 490.371094 444.609375 490.765625 446.09375 C 491.152344 447.578125 492.496094 448.933594 494.019531 448.789062 C 493.53125 450.238281 492.253906 451.308594 490.847656 451.90625 C 489.441406 452.503906 487.90625 452.695312 486.386719 452.875 C 483.472656 453.226562 480.558594 453.578125 477.640625 453.929688 C 476.347656 454.085938 471.238281 455.164062 471.316406 452.910156 C 471.386719 450.941406 476.773438 450.3125 478.21875 449.859375 " fill-opacity="1" fill-rule="nonzero"/><path fill="#e59552" d="M 493.230469 426.484375 C 493.472656 426.15625 493.859375 425.96875 494.25 425.867188 C 494.5 425.800781 494.78125 425.765625 495.011719 425.890625 C 495.203125 426 495.324219 426.210938 495.375 426.425781 C 495.5 426.980469 495.210938 427.542969 495.238281 428.109375 C 495.257812 428.527344 495.445312 428.980469 495.230469 429.339844 C 495.015625 429.703125 494.523438 429.753906 494.105469 429.761719 C 492.492188 429.800781 492.515625 427.4375 493.230469 426.484375 " fill-opacity="1" fill-rule="nonzero"/><path fill="#e59552" d="M 504.238281 346.023438 C 504.042969 346.21875 503.851562 346.425781 503.746094 346.679688 C 503.660156 346.882812 503.636719 347.101562 503.613281 347.316406 C 503.390625 349.265625 503.222656 351.359375 501.988281 352.882812 C 501.351562 353.667969 500.410156 354.355469 500.347656 355.363281 C 500.316406 355.808594 500.472656 356.246094 500.648438 356.65625 C 500.730469 356.847656 500.824219 357.046875 501 357.160156 C 501.273438 357.339844 501.652344 357.242188 501.890625 357.019531 C 502.128906 356.800781 502.253906 356.488281 502.363281 356.179688 C 502.675781 355.3125 502.910156 354.417969 503.289062 353.578125 C 503.714844 352.628906 504.320312 351.765625 504.710938 350.800781 C 504.960938 350.191406 505.121094 349.550781 505.394531 348.953125 C 505.816406 348.027344 507.828125 346.101562 507.464844 345.066406 C 506.878906 343.402344 504.777344 345.480469 504.238281 346.023438 " fill-opacity="1" fill-rule="nonzero"/><path fill="#f7b274" d="M 498.996094 443.015625 C 498.910156 443.199219 498.816406 443.414062 498.898438 443.601562 C 498.957031 443.746094 499.101562 443.839844 499.257812 443.863281 C 499.40625 443.882812 499.5625 443.847656 499.707031 443.792969 C 499.917969 443.714844 500.105469 443.589844 500.265625 443.433594 C 500.300781 443.398438 500.339844 443.359375 500.347656 443.308594 C 500.351562 443.269531 500.339844 443.230469 500.324219 443.191406 C 500.226562 442.917969 500.101562 442.179688 499.757812 442.097656 C 499.339844 441.992188 499.125 442.742188 498.996094 443.015625 " fill-opacity="1" fill-rule="nonzero"/><path fill="#f7b274" d="M 501.972656 439.359375 C 502.105469 439.363281 502.253906 439.371094 502.34375 439.464844 C 502.40625 439.53125 502.429688 439.628906 502.441406 439.714844 C 502.480469 439.957031 502.484375 440.207031 502.390625 440.425781 C 502.234375 440.796875 501.796875 441.019531 501.40625 440.929688 C 501.1875 440.878906 501 440.75 500.785156 440.6875 C 500.710938 440.667969 500.632812 440.652344 500.5625 440.617188 C 500.507812 440.589844 500.460938 440.546875 500.417969 440.503906 C 500.136719 440.230469 499.894531 439.921875 499.699219 439.582031 C 499.667969 439.53125 499.640625 439.472656 499.660156 439.421875 C 499.671875 439.390625 499.695312 439.371094 499.71875 439.351562 C 499.953125 439.179688 500.332031 439.328125 500.601562 439.339844 C 501.058594 439.359375 501.515625 439.351562 501.972656 439.359375 " fill-opacity="1" fill-rule="nonzero"/><path fill="#f7b274" d="M 498.308594 435.878906 C 498.261719 436.007812 498.226562 436.164062 498.304688 436.273438 C 498.359375 436.351562 498.453125 436.390625 498.546875 436.410156 C 498.921875 436.492188 499.335938 436.339844 499.679688 436.507812 C 499.746094 436.542969 499.8125 436.585938 499.882812 436.601562 C 500.003906 436.625 500.125 436.566406 500.234375 436.507812 C 500.355469 436.445312 500.480469 436.378906 500.574219 436.277344 C 500.667969 436.175781 500.726562 436.027344 500.691406 435.894531 C 500.671875 435.828125 500.632812 435.773438 500.601562 435.714844 C 500.449219 435.421875 500.460938 435.078125 500.359375 434.765625 C 500.320312 434.632812 500.257812 434.5 500.175781 434.382812 C 499.796875 433.832031 499.523438 434.1875 499.214844 434.53125 C 498.847656 434.933594 498.496094 435.359375 498.308594 435.878906 " fill-opacity="1" fill-rule="nonzero"/><path fill="#f7b274" d="M 502.929688 445.507812 C 503.183594 445.527344 503.445312 445.46875 503.695312 445.523438 C 503.761719 445.542969 503.828125 445.5625 503.894531 445.558594 C 503.949219 445.554688 504 445.535156 504.046875 445.511719 C 504.34375 445.375 504.625 445.179688 504.789062 444.894531 C 504.949219 444.609375 504.964844 444.226562 504.769531 443.964844 C 504.367188 443.429688 503.4375 443.269531 503 443.816406 C 502.644531 444.265625 501.902344 445.421875 502.929688 445.507812 " fill-opacity="1" fill-rule="nonzero"/><path fill="#f7b274" d="M 514.226562 345.703125 C 513.78125 345.382812 513.171875 345.460938 512.636719 345.339844 C 512.390625 345.28125 512.132812 345.167969 512.007812 344.945312 C 511.910156 344.773438 511.90625 344.5625 511.925781 344.363281 C 511.9375 344.21875 511.964844 344.070312 512.0625 343.964844 C 512.136719 343.886719 512.238281 343.84375 512.339844 343.804688 C 512.777344 343.632812 513.214844 343.460938 513.652344 343.289062 C 514 343.152344 514.359375 343.015625 514.730469 343.019531 C 514.996094 343.027344 515.289062 343.121094 515.480469 343.316406 C 515.671875 343.519531 515.640625 343.84375 515.824219 344.03125 C 516.152344 344.367188 516.84375 344.320312 516.582031 345.011719 C 516.40625 345.472656 515.789062 346.105469 515.410156 346.410156 C 515.121094 346.644531 515.003906 346.519531 514.746094 346.25 C 514.570312 346.070312 514.433594 345.855469 514.226562 345.703125 " fill-opacity="1" fill-rule="nonzero"/><path fill="#f7b274" d="M 510.296875 351.164062 C 510.347656 351.292969 510.40625 351.4375 510.527344 351.507812 C 510.652344 351.578125 510.808594 351.554688 510.929688 351.484375 C 511.050781 351.414062 511.140625 351.300781 511.222656 351.183594 C 511.367188 350.972656 511.492188 350.742188 511.589844 350.5 C 511.660156 350.320312 511.714844 350.132812 511.8125 349.964844 C 511.96875 349.691406 512.234375 349.441406 512.195312 349.132812 C 512.167969 348.929688 512.007812 348.761719 511.816406 348.6875 C 511.628906 348.609375 511.414062 348.609375 511.210938 348.628906 C 510.808594 348.664062 509.789062 348.898438 509.726562 349.425781 C 509.707031 349.601562 509.882812 349.894531 509.933594 350.0625 C 510.050781 350.429688 510.164062 350.796875 510.296875 351.164062 " fill-opacity="1" fill-rule="nonzero"/><path fill="#f7b274" d="M 519.261719 347.621094 C 519.457031 347.691406 519.613281 347.839844 519.757812 347.984375 C 519.863281 348.085938 519.96875 348.191406 520.035156 348.320312 C 520.105469 348.449219 520.128906 348.605469 520.0625 348.738281 C 519.941406 348.972656 519.617188 348.988281 519.351562 348.972656 C 518.960938 348.949219 518.558594 348.921875 518.214844 348.738281 C 518.0625 348.660156 517.914062 348.550781 517.75 348.566406 C 517.671875 348.574219 517.601562 348.605469 517.523438 348.617188 C 516.832031 348.710938 516.523438 347.785156 517.21875 347.578125 C 517.734375 347.425781 518.777344 347.445312 519.261719 347.621094 " fill-opacity="1" fill-rule="nonzero"/><g clip-path="url(#3d916309ee)"><path fill="#f7b274" d="M 585.179688 470.710938 C 583.605469 471.472656 581.800781 471.574219 580.054688 471.660156 C 573.601562 471.976562 567.152344 472.296875 560.699219 472.617188 C 555.128906 472.890625 548.570312 474.21875 543.054688 473.449219 C 538.871094 472.867188 538.277344 470.808594 540.300781 467.199219 C 545.050781 458.714844 559.316406 450.691406 569.003906 452.410156 C 574.183594 453.328125 594.53125 466.019531 585.179688 470.710938 " fill-opacity="1" fill-rule="nonzero"/></g><path fill="#f7b274" d="M 592.246094 445.613281 C 592.988281 445.570312 593.816406 445.699219 594.289062 446.277344 C 595.027344 447.183594 594.457031 448.546875 594.664062 449.699219 C 594.734375 450.09375 594.898438 450.480469 594.84375 450.878906 C 594.769531 451.417969 594.296875 451.832031 593.777344 451.996094 C 593.261719 452.160156 592.707031 452.128906 592.164062 452.089844 C 590.082031 451.949219 588 451.8125 585.917969 451.671875 C 585.429688 451.636719 584.921875 451.601562 584.484375 451.371094 C 583.921875 451.074219 583.542969 450.449219 583.539062 449.808594 C 583.539062 449.167969 583.910156 448.542969 584.472656 448.238281 C 585.125 447.886719 585.941406 447.972656 586.597656 447.625 C 587.238281 447.289062 587.609375 446.605469 588.121094 446.09375 C 588.65625 445.558594 589.140625 445.535156 589.828125 445.59375 C 590.65625 445.667969 591.386719 445.664062 592.246094 445.613281 " fill-opacity="1" fill-rule="nonzero"/><path fill="#e59552" d="M 542.5 467.464844 C 542.5 467.15625 542.535156 466.789062 542.804688 466.640625 C 542.9375 466.570312 543.09375 466.574219 543.246094 466.585938 C 543.714844 466.632812 544.175781 466.761719 544.597656 466.96875 C 544.953125 467.140625 545.285156 467.375 545.511719 467.695312 C 545.984375 468.371094 545.878906 469.332031 545.441406 470.03125 C 545.152344 470.5 544.710938 470.894531 544.179688 471.035156 C 541.984375 471.617188 542.5 468.675781 542.5 467.464844 " fill-opacity="1" fill-rule="nonzero"/><path fill="#e59552" d="M 549.042969 464.445312 C 549.066406 464.625 549.128906 464.8125 549.269531 464.925781 C 549.460938 465.089844 549.742188 465.074219 549.988281 465.050781 C 550.773438 464.980469 551.558594 464.910156 552.34375 464.839844 C 552.445312 464.828125 552.554688 464.816406 552.636719 464.753906 C 552.742188 464.671875 552.777344 464.53125 552.796875 464.398438 C 552.929688 463.554688 552.8125 462.5625 552.125 462.0625 C 550.496094 460.871094 548.839844 462.816406 549.042969 464.445312 " fill-opacity="1" fill-rule="nonzero"/><path fill="#e59552" d="M 521.363281 465.257812 C 521.074219 465.398438 520.730469 465.652344 520.832031 465.957031 C 521.859375 466.351562 523.027344 466.109375 524.09375 466.375 C 524.898438 466.570312 525.609375 467.039062 526.402344 467.277344 C 527.441406 467.589844 528.554688 467.488281 529.636719 467.382812 C 530.53125 467.296875 531.4375 467.207031 532.277344 466.882812 C 533.113281 466.554688 533.890625 465.957031 534.222656 465.117188 C 534.3125 464.894531 534.367188 464.648438 534.324219 464.410156 C 534.210938 463.800781 533.53125 463.5 532.9375 463.335938 C 531.460938 462.925781 529.140625 462.179688 527.59375 462.4375 C 525.519531 462.785156 523.261719 464.363281 521.363281 465.257812 " fill-opacity="1" fill-rule="nonzero"/><g clip-path="url(#61096f96ae)"><path fill="#e59552" d="M 599.601562 459.480469 C 602.050781 459.15625 604.695312 458.273438 605.90625 456.117188 C 605.96875 456.003906 606.03125 455.878906 606.003906 455.753906 C 605.96875 455.605469 605.820312 455.511719 605.683594 455.4375 C 604.035156 454.539062 602.242188 453.609375 600.382812 453.855469 C 599.671875 453.953125 598.992188 454.21875 598.28125 454.300781 C 596.171875 454.550781 594.199219 453.378906 592.070312 453.644531 C 590.59375 453.828125 589.054688 454.367188 587.816406 455.203125 C 583.96875 457.792969 590.066406 458.941406 592.105469 459.304688 C 594.578125 459.742188 597.113281 459.808594 599.601562 459.480469 " fill-opacity="1" fill-rule="nonzero"/></g><path fill="#e59552" d="M 576 465.835938 C 576.136719 465.832031 576.285156 465.835938 576.390625 465.921875 C 576.6875 466.171875 576.292969 466.675781 576.453125 467.027344 C 577.039062 467.035156 577.625 467.1875 578.144531 467.457031 C 577.96875 468.410156 576.851562 468.835938 575.894531 468.933594 C 573.847656 469.152344 571.734375 468.664062 569.980469 467.578125 C 569.320312 467.167969 568.617188 466.648438 567.84375 466.757812 C 567.632812 466.789062 567.425781 466.867188 567.214844 466.847656 C 567 466.828125 566.773438 466.65625 566.800781 466.445312 C 566.816406 466.324219 566.90625 466.226562 566.996094 466.144531 C 567.738281 465.460938 568.757812 465.132812 569.761719 465.078125 C 570.84375 465.023438 571.746094 465.300781 572.75 465.628906 C 573.804688 465.980469 574.890625 465.855469 576 465.835938 " fill-opacity="1" fill-rule="nonzero"/><path fill="#e59552" d="M 577.324219 461.566406 C 577.558594 461.4375 577.769531 461.214844 577.785156 460.949219 C 577.796875 460.664062 577.589844 460.417969 577.378906 460.222656 C 576.722656 459.625 575.242188 458.707031 574.292969 459.011719 C 573.242188 459.34375 573.546875 460.835938 573.882812 461.613281 C 574.957031 461.511719 576.328125 462.109375 577.324219 461.566406 " fill-opacity="1" fill-rule="nonzero"/><g clip-path="url(#a575e65e32)"><g transform="matrix(1, 0, 0, 1, 833, 335)"><g clip-path="url(#bb88633982)"><path fill="#f7b274" d="M 90.335938 9.011719 C 93.652344 0.695312 132.425781 20.796875 150.644531 33.71875 C 175.800781 51.558594 192.832031 72.800781 226.101562 87.238281 C 230.972656 89.355469 229.019531 97.949219 217.109375 100.113281 C 211.886719 101.066406 198.390625 106.066406 193.449219 108.007812 C 180.902344 112.933594 170.285156 116.1875 157.054688 118.742188 C 134.648438 123.0625 118.753906 121.167969 96.792969 114.957031 C 74.832031 108.746094 54.71875 94.457031 33.214844 86.800781 C 26.558594 84.4375 23.136719 79.445312 28.492188 77.113281 C 56.203125 65.054688 79.117188 37.144531 90.335938 9.011719 " fill-opacity="1" fill-rule="nonzero"/><path fill="#ffcea6" d="M 70.84375 102.605469 C 62.816406 99.523438 31.09375 87.257812 25.359375 84.050781 C 22.136719 82.25 19.171875 78.871094 19.929688 75.253906 C 20.40625 72.988281 22.214844 71.28125 23.960938 69.769531 C 34.367188 60.78125 45.964844 53.191406 55.792969 43.566406 C 66.542969 33.039062 74.976562 20.265625 86.105469 10.140625 C 87.683594 8.707031 92.878906 5.816406 95.113281 7.175781 C 97.832031 8.832031 101.007812 13.390625 101.738281 30.226562 C 102.023438 36.847656 102.660156 42.921875 102.144531 49.527344 C 100.996094 64.328125 102.851562 80.234375 107.957031 93.871094 C 109.289062 97.417969 113.246094 110.707031 108.789062 112.589844 C 100.90625 115.917969 78.179688 105.425781 70.84375 102.605469 " fill-opacity="1" fill-rule="nonzero"/><path fill="#f7b274" d="M 69.84375 96.773438 C 63.175781 94.210938 36.824219 84.023438 32.058594 81.359375 C 29.382812 79.863281 26.917969 77.058594 27.550781 74.050781 C 27.945312 72.167969 29.449219 70.75 30.902344 69.496094 C 39.542969 62.027344 49.179688 55.722656 57.34375 47.730469 C 66.273438 38.984375 73.277344 28.371094 82.523438 19.960938 C 83.835938 18.769531 88.148438 16.367188 90.007812 17.496094 C 92.265625 18.875 94.734375 20.472656 95.875 34.699219 C 96.316406 40.1875 96.277344 47.191406 95.847656 52.679688 C 94.890625 64.976562 96.433594 78.191406 100.675781 89.515625 C 101.78125 92.460938 103.949219 103.394531 100.246094 104.957031 C 93.703125 107.722656 75.941406 99.117188 69.84375 96.773438 " fill-opacity="1" fill-rule="nonzero"/><path fill="#e59552" d="M 69.460938 97.203125 C 63.136719 94.773438 46.058594 83.691406 41.539062 81.164062 C 39.003906 79.742188 32.464844 76.292969 33.066406 73.441406 C 33.441406 71.65625 38.953125 71.769531 42.511719 66.644531 C 48.6875 57.734375 52.429688 58.144531 60.171875 50.5625 C 68.640625 42.265625 75.28125 32.203125 84.054688 24.230469 C 85.296875 23.097656 90.367188 19 92.128906 20.070312 C 94.269531 21.375 95.792969 26.789062 96.367188 40.050781 C 96.597656 45.269531 97.246094 79.449219 101.269531 90.191406 C 102.316406 92.988281 104.558594 104.351562 101.046875 105.835938 C 94.839844 108.453125 75.242188 99.425781 69.460938 97.203125 " fill-opacity="1" fill-rule="nonzero"/><g clip-path="url(#1e1953921f)"><g clip-path="url(#4576ae94b2)"><path fill="#d3792f" d="M 112.710938 7.597656 C 101.820312 31.039062 86.863281 34.507812 82.71875 50.214844 C 78.800781 65.0625 47.644531 67.269531 54.425781 75.105469 C 65.765625 80.800781 118.394531 94.257812 139.746094 89.953125 C 142.101562 89.476562 137.890625 63.417969 131.871094 43.257812 C 126.863281 26.472656 114.078125 4.644531 112.710938 7.597656 " fill-opacity="1" fill-rule="nonzero"/></g></g><path fill="#e59552" d="M 213.019531 87.558594 C 211.414062 87.503906 209.800781 88.234375 208.78125 89.480469 C 208.433594 89.910156 208.140625 90.421875 208.136719 90.976562 C 208.132812 91.957031 209.007812 92.703125 209.863281 93.183594 C 213.226562 95.078125 217.378906 95.15625 221.117188 94.183594 C 222.304688 93.875 223.65625 93.242188 223.824219 92.023438 C 223.886719 91.566406 223.710938 91.039062 223.296875 90.835938 C 222.5 90.449219 221.59375 91.171875 220.726562 90.761719 C 220.019531 90.433594 219.378906 89.972656 218.640625 89.644531 C 216.820312 88.839844 215.070312 87.625 213.019531 87.558594 " fill-opacity="1" fill-rule="nonzero"/><path fill="#e59552" d="M 202.710938 88.902344 C 202.609375 89.332031 202.277344 89.65625 201.996094 89.996094 C 201.710938 90.332031 201.457031 90.761719 201.566406 91.191406 C 201.652344 91.539062 201.964844 91.789062 202.300781 91.914062 C 202.636719 92.039062 203 92.058594 203.355469 92.105469 C 204 92.191406 204.632812 92.363281 205.234375 92.621094 C 205.351562 92.667969 205.472656 92.722656 205.597656 92.691406 C 205.703125 92.664062 205.777344 92.582031 205.851562 92.5 C 207.617188 90.480469 204.085938 89.484375 202.710938 88.902344 " fill-opacity="1" fill-rule="nonzero"/><path fill="#e59552" d="M 206.808594 95.941406 C 206.65625 95.828125 206.492188 95.714844 206.300781 95.710938 C 206.09375 95.710938 205.917969 95.84375 205.738281 95.945312 C 204.683594 96.558594 203.144531 96.277344 202.382812 97.230469 C 202.1875 97.476562 202.070312 97.773438 201.878906 98.015625 C 201.550781 98.429688 201.039062 98.640625 200.589844 98.914062 C 200.144531 99.191406 199.707031 99.621094 199.722656 100.148438 C 199.726562 100.328125 199.785156 100.503906 199.816406 100.679688 C 199.90625 101.222656 199.730469 101.804688 199.355469 102.203125 C 200.207031 102.800781 201.390625 102.671875 202.34375 102.257812 C 203.300781 101.84375 204.132812 101.183594 205.074219 100.734375 C 206.191406 100.203125 207.78125 99.992188 208.644531 99.035156 C 209.714844 97.855469 207.644531 96.566406 206.808594 95.941406 " fill-opacity="1" fill-rule="nonzero"/><path fill="#e59552" d="M 118.628906 86.972656 C 118.839844 87.230469 119.050781 87.496094 119.132812 87.816406 C 119.289062 88.421875 118.894531 89.085938 118.324219 89.34375 C 117.753906 89.601562 117.070312 89.503906 116.519531 89.210938 C 115.96875 88.917969 115.53125 88.449219 115.148438 87.953125 C 114.875 87.597656 114.617188 87.214844 114.257812 86.949219 C 113.292969 86.242188 111.84375 86.511719 110.910156 85.769531 C 110.367188 85.335938 110.105469 84.644531 109.90625 83.980469 C 109.859375 83.816406 109.8125 83.640625 109.871094 83.480469 C 109.929688 83.3125 110.085938 83.203125 110.238281 83.113281 C 111.589844 82.316406 113.667969 82.070312 115.082031 82.886719 C 116.507812 83.707031 117.597656 85.707031 118.628906 86.972656 " fill-opacity="1" fill-rule="nonzero"/><path fill="#e59552" d="M 128.597656 114.859375 C 125.863281 114.007812 123.097656 112.789062 121.324219 110.53125 C 117.878906 106.128906 119.09375 98.980469 114.917969 95.269531 C 113.855469 97.042969 114.253906 99.296875 114.6875 101.320312 C 115.058594 103.058594 115.429688 104.796875 115.800781 106.535156 C 116.125 108.035156 116.445312 109.609375 116.054688 111.09375 C 115.664062 112.578125 114.320312 113.933594 112.796875 113.789062 C 113.285156 115.238281 114.5625 116.308594 115.96875 116.90625 C 117.375 117.503906 118.914062 117.695312 120.429688 117.875 C 123.34375 118.226562 126.261719 118.578125 129.175781 118.929688 C 130.46875 119.085938 135.578125 120.164062 135.5 117.910156 C 135.429688 115.941406 130.046875 115.3125 128.597656 114.859375 " fill-opacity="1" fill-rule="nonzero"/><path fill="#e59552" d="M 113.589844 91.484375 C 113.347656 91.15625 112.957031 90.96875 112.566406 90.867188 C 112.316406 90.800781 112.035156 90.765625 111.808594 90.890625 C 111.613281 91 111.492188 91.210938 111.441406 91.425781 C 111.316406 91.980469 111.605469 92.542969 111.578125 93.109375 C 111.558594 93.527344 111.371094 93.980469 111.585938 94.339844 C 111.800781 94.703125 112.292969 94.753906 112.714844 94.761719 C 114.324219 94.800781 114.300781 92.4375 113.589844 91.484375 " fill-opacity="1" fill-rule="nonzero"/><path fill="#e59552" d="M 102.582031 11.023438 C 102.773438 11.21875 102.964844 11.425781 103.070312 11.679688 C 103.15625 11.882812 103.183594 12.101562 103.207031 12.316406 C 103.425781 14.265625 103.597656 16.359375 104.828125 17.882812 C 105.46875 18.667969 106.40625 19.355469 106.46875 20.363281 C 106.5 20.808594 106.34375 21.246094 106.167969 21.65625 C 106.085938 21.847656 105.992188 22.046875 105.816406 22.160156 C 105.546875 22.339844 105.164062 22.242188 104.925781 22.019531 C 104.6875 21.800781 104.5625 21.488281 104.453125 21.179688 C 104.144531 20.3125 103.90625 19.417969 103.527344 18.578125 C 103.101562 17.628906 102.5 16.765625 102.105469 15.800781 C 101.859375 15.191406 101.695312 14.550781 101.425781 13.953125 C 101.003906 13.027344 98.988281 11.101562 99.351562 10.066406 C 99.9375 8.402344 102.042969 10.480469 102.582031 11.023438 " fill-opacity="1" fill-rule="nonzero"/><path fill="#f7b274" d="M 107.820312 108.015625 C 107.910156 108.199219 108 108.414062 107.921875 108.601562 C 107.859375 108.746094 107.714844 108.839844 107.5625 108.863281 C 107.410156 108.882812 107.253906 108.847656 107.109375 108.792969 C 106.902344 108.714844 106.710938 108.589844 106.550781 108.433594 C 106.515625 108.398438 106.480469 108.359375 106.46875 108.308594 C 106.464844 108.269531 106.480469 108.230469 106.492188 108.191406 C 106.589844 107.917969 106.714844 107.179688 107.058594 107.097656 C 107.476562 106.992188 107.691406 107.742188 107.820312 108.015625 " fill-opacity="1" fill-rule="nonzero"/><path fill="#f7b274" d="M 104.84375 104.359375 C 104.710938 104.363281 104.5625 104.371094 104.472656 104.464844 C 104.410156 104.53125 104.386719 104.628906 104.375 104.714844 C 104.335938 104.957031 104.332031 105.207031 104.425781 105.425781 C 104.585938 105.796875 105.023438 106.019531 105.410156 105.929688 C 105.628906 105.878906 105.820312 105.75 106.03125 105.6875 C 106.109375 105.667969 106.183594 105.652344 106.253906 105.617188 C 106.308594 105.589844 106.355469 105.546875 106.402344 105.503906 C 106.683594 105.230469 106.925781 104.921875 107.121094 104.582031 C 107.148438 104.53125 107.175781 104.472656 107.15625 104.421875 C 107.144531 104.390625 107.121094 104.371094 107.097656 104.351562 C 106.863281 104.179688 106.488281 104.328125 106.214844 104.339844 C 105.761719 104.359375 105.300781 104.351562 104.84375 104.359375 " fill-opacity="1" fill-rule="nonzero"/><path fill="#f7b274" d="M 108.511719 100.878906 C 108.554688 101.007812 108.589844 101.164062 108.511719 101.273438 C 108.457031 101.351562 108.363281 101.390625 108.269531 101.410156 C 107.894531 101.492188 107.480469 101.339844 107.136719 101.507812 C 107.070312 101.542969 107.007812 101.585938 106.933594 101.601562 C 106.8125 101.625 106.691406 101.566406 106.585938 101.507812 C 106.464844 101.445312 106.335938 101.378906 106.246094 101.277344 C 106.148438 101.175781 106.089844 101.027344 106.128906 100.894531 C 106.144531 100.828125 106.183594 100.773438 106.214844 100.714844 C 106.367188 100.421875 106.359375 100.078125 106.457031 99.765625 C 106.5 99.632812 106.5625 99.5 106.640625 99.382812 C 107.019531 98.832031 107.292969 99.1875 107.601562 99.53125 C 107.96875 99.933594 108.320312 100.359375 108.511719 100.878906 " fill-opacity="1" fill-rule="nonzero"/><path fill="#f7b274" d="M 103.886719 110.507812 C 103.632812 110.527344 103.371094 110.46875 103.121094 110.523438 C 103.054688 110.542969 102.988281 110.5625 102.921875 110.558594 C 102.867188 110.554688 102.820312 110.535156 102.769531 110.511719 C 102.472656 110.375 102.191406 110.179688 102.027344 109.894531 C 101.867188 109.609375 101.851562 109.226562 102.046875 108.964844 C 102.449219 108.429688 103.378906 108.269531 103.816406 108.816406 C 104.171875 109.265625 104.914062 110.421875 103.886719 110.507812 " fill-opacity="1" fill-rule="nonzero"/><path fill="#f7b274" d="M 92.59375 10.703125 C 93.039062 10.382812 93.644531 10.460938 94.179688 10.339844 C 94.429688 10.28125 94.683594 10.167969 94.808594 9.945312 C 94.90625 9.773438 94.910156 9.5625 94.894531 9.363281 C 94.878906 9.21875 94.851562 9.070312 94.753906 8.964844 C 94.679688 8.886719 94.578125 8.84375 94.476562 8.804688 C 94.039062 8.632812 93.601562 8.460938 93.164062 8.289062 C 92.816406 8.152344 92.457031 8.015625 92.085938 8.019531 C 91.820312 8.027344 91.527344 8.121094 91.335938 8.316406 C 91.144531 8.519531 91.175781 8.84375 90.996094 9.03125 C 90.664062 9.367188 89.976562 9.320312 90.234375 10.011719 C 90.410156 10.472656 91.03125 11.105469 91.40625 11.410156 C 91.695312 11.644531 91.8125 11.519531 92.070312 11.25 C 92.25 11.070312 92.382812 10.855469 92.59375 10.703125 " fill-opacity="1" fill-rule="nonzero"/><path fill="#f7b274" d="M 96.519531 16.164062 C 96.46875 16.292969 96.410156 16.4375 96.289062 16.507812 C 96.164062 16.578125 96.007812 16.554688 95.886719 16.484375 C 95.765625 16.414062 95.675781 16.300781 95.597656 16.183594 C 95.449219 15.972656 95.324219 15.742188 95.230469 15.5 C 95.160156 15.320312 95.101562 15.132812 95.003906 14.964844 C 94.851562 14.691406 94.582031 14.441406 94.621094 14.132812 C 94.648438 13.929688 94.8125 13.761719 95 13.6875 C 95.191406 13.609375 95.402344 13.609375 95.605469 13.628906 C 96.007812 13.664062 97.03125 13.898438 97.089844 14.425781 C 97.113281 14.601562 96.933594 14.894531 96.882812 15.0625 C 96.765625 15.429688 96.65625 15.796875 96.519531 16.164062 " fill-opacity="1" fill-rule="nonzero"/><path fill="#f7b274" d="M 87.554688 12.621094 C 87.359375 12.691406 87.207031 12.839844 87.058594 12.984375 C 86.953125 13.085938 86.847656 13.191406 86.78125 13.320312 C 86.710938 13.449219 86.691406 13.605469 86.753906 13.738281 C 86.875 13.972656 87.199219 13.988281 87.464844 13.972656 C 87.855469 13.949219 88.257812 13.921875 88.605469 13.738281 C 88.753906 13.660156 88.902344 13.550781 89.070312 13.566406 C 89.144531 13.574219 89.214844 13.605469 89.292969 13.617188 C 89.988281 13.710938 90.292969 12.785156 89.597656 12.578125 C 89.085938 12.425781 88.039062 12.445312 87.554688 12.621094 " fill-opacity="1" fill-rule="nonzero"/><g clip-path="url(#304f175af1)"><path fill="#f7b274" d="M 21.636719 135.710938 C 23.214844 136.472656 25.015625 136.574219 26.761719 136.660156 C 33.214844 136.976562 39.667969 137.296875 46.117188 137.617188 C 51.6875 137.890625 58.246094 139.21875 63.761719 138.449219 C 67.949219 137.867188 68.539062 135.808594 66.515625 132.199219 C 61.765625 123.714844 47.5 115.691406 37.8125 117.410156 C 32.632812 118.328125 12.289062 131.019531 21.636719 135.710938 " fill-opacity="1" fill-rule="nonzero"/></g><path fill="#f7b274" d="M 14.570312 110.613281 C 13.828125 110.570312 13 110.699219 12.527344 111.277344 C 11.789062 112.183594 12.359375 113.546875 12.152344 114.699219 C 12.085938 115.09375 11.917969 115.480469 11.972656 115.878906 C 12.046875 116.417969 12.523438 116.832031 13.039062 116.996094 C 13.554688 117.160156 14.109375 117.128906 14.652344 117.089844 C 16.734375 116.949219 18.816406 116.8125 20.898438 116.671875 C 21.390625 116.636719 21.898438 116.601562 22.332031 116.371094 C 22.898438 116.074219 23.273438 115.449219 23.277344 114.808594 C 23.277344 114.167969 22.90625 113.542969 22.34375 113.238281 C 21.691406 112.886719 20.875 112.972656 20.21875 112.625 C 19.578125 112.289062 19.207031 111.605469 18.695312 111.09375 C 18.160156 110.558594 17.675781 110.535156 16.992188 110.59375 C 16.160156 110.667969 15.429688 110.664062 14.570312 110.613281 " fill-opacity="1" fill-rule="nonzero"/><path fill="#e59552" d="M 64.316406 132.464844 C 64.316406 132.15625 64.285156 131.789062 64.011719 131.640625 C 63.878906 131.570312 63.722656 131.574219 63.574219 131.585938 C 63.101562 131.632812 62.640625 131.761719 62.21875 131.96875 C 61.863281 132.140625 61.53125 132.375 61.304688 132.695312 C 60.832031 133.371094 60.941406 134.332031 61.375 135.03125 C 61.664062 135.5 62.105469 135.894531 62.636719 136.035156 C 64.832031 136.617188 64.316406 133.675781 64.316406 132.464844 " fill-opacity="1" fill-rule="nonzero"/><path fill="#e59552" d="M 57.773438 129.445312 C 57.75 129.625 57.6875 129.8125 57.546875 129.925781 C 57.355469 130.089844 57.078125 130.074219 56.828125 130.050781 C 56.046875 129.980469 55.261719 129.910156 54.476562 129.839844 C 54.371094 129.828125 54.261719 129.816406 54.179688 129.753906 C 54.074219 129.671875 54.042969 129.53125 54.019531 129.398438 C 53.886719 128.554688 54.003906 127.5625 54.691406 127.0625 C 56.320312 125.871094 57.976562 127.816406 57.773438 129.445312 " fill-opacity="1" fill-rule="nonzero"/><path fill="#e59552" d="M 85.453125 130.257812 C 85.742188 130.398438 86.085938 130.652344 85.984375 130.957031 C 84.957031 131.351562 83.789062 131.109375 82.722656 131.375 C 81.921875 131.570312 81.207031 132.039062 80.417969 132.277344 C 79.378906 132.589844 78.261719 132.488281 77.183594 132.382812 C 76.285156 132.296875 75.378906 132.207031 74.542969 131.882812 C 73.703125 131.554688 72.925781 130.957031 72.59375 130.117188 C 72.503906 129.894531 72.449219 129.648438 72.492188 129.410156 C 72.605469 128.800781 73.285156 128.5 73.878906 128.335938 C 75.355469 127.925781 77.675781 127.179688 79.226562 127.4375 C 81.300781 127.785156 83.554688 129.363281 85.453125 130.257812 " fill-opacity="1" fill-rule="nonzero"/><g clip-path="url(#d6a28f8143)"><path fill="#e59552" d="M 7.214844 124.480469 C 4.765625 124.15625 2.121094 123.273438 0.910156 121.117188 C 0.847656 121.003906 0.785156 120.878906 0.816406 120.753906 C 0.847656 120.605469 1 120.511719 1.136719 120.4375 C 2.78125 119.539062 4.574219 118.609375 6.433594 118.855469 C 7.144531 118.953125 7.824219 119.21875 8.539062 119.300781 C 10.644531 119.550781 12.617188 118.378906 14.75 118.644531 C 16.226562 118.828125 17.761719 119.367188 19 120.203125 C 22.847656 122.792969 16.753906 123.941406 14.710938 124.304688 C 12.242188 124.742188 9.703125 124.808594 7.214844 124.480469 " fill-opacity="1" fill-rule="nonzero"/></g><path fill="#e59552" d="M 30.820312 130.835938 C 30.683594 130.832031 30.53125 130.835938 30.425781 130.921875 C 30.128906 131.171875 30.523438 131.675781 30.363281 132.027344 C 29.777344 132.035156 29.191406 132.1875 28.671875 132.457031 C 28.847656 133.410156 29.964844 133.835938 30.921875 133.933594 C 32.96875 134.152344 35.085938 133.664062 36.835938 132.578125 C 37.496094 132.167969 38.199219 131.648438 38.972656 131.757812 C 39.183594 131.789062 39.390625 131.867188 39.605469 131.847656 C 39.816406 131.828125 40.042969 131.65625 40.015625 131.445312 C 40 131.324219 39.910156 131.226562 39.820312 131.144531 C 39.078125 130.460938 38.0625 130.132812 37.054688 130.078125 C 35.972656 130.023438 35.070312 130.300781 34.066406 130.628906 C 33.011719 130.980469 31.925781 130.855469 30.820312 130.835938 " fill-opacity="1" fill-rule="nonzero"/><path fill="#e59552" d="M 29.496094 126.566406 C 29.261719 126.4375 29.046875 126.214844 29.035156 125.949219 C 29.019531 125.664062 29.226562 125.417969 29.4375 125.222656 C 30.09375 124.625 31.574219 123.707031 32.523438 124.011719 C 33.578125 124.34375 33.269531 125.835938 32.9375 126.613281 C 31.863281 126.511719 30.488281 127.109375 29.496094 126.566406 " fill-opacity="1" fill-rule="nonzero"/></g></g></g></svg>