<svg xmlns="http://www.w3.org/2000/svg" xmlns:xlink="http://www.w3.org/1999/xlink" width="1920" zoomAndPan="magnify" viewBox="0 0 1440 809.999993" height="1080" preserveAspectRatio="xMidYMid meet" version="1.0"><defs><clipPath id="e32251cfa5"><path d="M 686 358 L 746 358 L 746 507 L 686 507 Z M 686 358 " clip-rule="nonzero"/></clipPath><clipPath id="1a96e3352e"><path d="M 754.011719 555.167969 L 566.203125 421.964844 L 685.523438 253.730469 L 873.332031 386.9375 Z M 754.011719 555.167969 " clip-rule="nonzero"/></clipPath><clipPath id="81586e196a"><path d="M 754.011719 555.167969 L 566.203125 421.964844 L 685.523438 253.730469 L 873.332031 386.9375 Z M 754.011719 555.167969 " clip-rule="nonzero"/></clipPath><clipPath id="423512e50d"><path d="M 754.011719 555.167969 L 566.203125 421.964844 L 685.523438 253.730469 L 873.332031 386.9375 Z M 754.011719 555.167969 " clip-rule="nonzero"/></clipPath><clipPath id="ae2ebe86dc"><path d="M 751 356 L 812 356 L 812 506 L 751 506 Z M 751 356 " clip-rule="nonzero"/></clipPath><clipPath id="f457422c68"><path d="M 754.011719 555.167969 L 566.203125 421.964844 L 685.523438 253.730469 L 873.332031 386.9375 Z M 754.011719 555.167969 " clip-rule="nonzero"/></clipPath><clipPath id="6b25e55b97"><path d="M 754.011719 555.167969 L 566.203125 421.964844 L 685.523438 253.730469 L 873.332031 386.9375 Z M 754.011719 555.167969 " clip-rule="nonzero"/></clipPath><clipPath id="2cc3ed1ee4"><path d="M 754.011719 555.167969 L 566.203125 421.964844 L 685.523438 253.730469 L 873.332031 386.9375 Z M 754.011719 555.167969 " clip-rule="nonzero"/></clipPath><clipPath id="b97fba9b58"><path d="M 762 327 L 817 327 L 817 414 L 762 414 Z M 762 327 " clip-rule="nonzero"/></clipPath><clipPath id="bb23ed0e20"><path d="M 754.011719 555.167969 L 566.203125 421.964844 L 685.523438 253.730469 L 873.332031 386.9375 Z M 754.011719 555.167969 " clip-rule="nonzero"/></clipPath><clipPath id="843f843e84"><path d="M 754.011719 555.167969 L 566.203125 421.964844 L 685.523438 253.730469 L 873.332031 386.9375 Z M 754.011719 555.167969 " clip-rule="nonzero"/></clipPath><clipPath id="ca9588e97b"><path d="M 754.011719 555.167969 L 566.203125 421.964844 L 685.523438 253.730469 L 873.332031 386.9375 Z M 754.011719 555.167969 " clip-rule="nonzero"/></clipPath><clipPath id="0309ca2c4a"><path d="M 782.96875 415.765625 L 745.578125 389.246094 L 789.421875 327.429688 L 826.8125 353.949219 Z M 782.96875 415.765625 " clip-rule="nonzero"/></clipPath><clipPath id="0686662c92"><path d="M 762 368 L 794 368 L 794 414 L 762 414 Z M 762 368 " clip-rule="nonzero"/></clipPath><clipPath id="8476891449"><path d="M 754.011719 555.167969 L 566.203125 421.964844 L 685.523438 253.730469 L 873.332031 386.9375 Z M 754.011719 555.167969 " clip-rule="nonzero"/></clipPath><clipPath id="cc2749bb21"><path d="M 754.011719 555.167969 L 566.203125 421.964844 L 685.523438 253.730469 L 873.332031 386.9375 Z M 754.011719 555.167969 " clip-rule="nonzero"/></clipPath><clipPath id="98ad86bf33"><path d="M 754.011719 555.167969 L 566.203125 421.964844 L 685.523438 253.730469 L 873.332031 386.9375 Z M 754.011719 555.167969 " clip-rule="nonzero"/></clipPath><clipPath id="840220e79c"><path d="M 614 343 L 671 343 L 671 416 L 614 416 Z M 614 343 " clip-rule="nonzero"/></clipPath><clipPath id="dce890a789"><path d="M 754.011719 555.167969 L 566.203125 421.964844 L 685.523438 253.730469 L 873.332031 386.9375 Z M 754.011719 555.167969 " clip-rule="nonzero"/></clipPath><clipPath id="155c563228"><path d="M 754.011719 555.167969 L 566.203125 421.964844 L 685.523438 253.730469 L 873.332031 386.9375 Z M 754.011719 555.167969 " clip-rule="nonzero"/></clipPath><clipPath id="d83697850d"><path d="M 754.011719 555.167969 L 566.203125 421.964844 L 685.523438 253.730469 L 873.332031 386.9375 Z M 754.011719 555.167969 " clip-rule="nonzero"/></clipPath><clipPath id="029a18954e"><path d="M 664.515625 423.871094 L 598.230469 376.855469 L 622.347656 342.851562 L 688.632812 389.867188 Z M 664.515625 423.871094 " clip-rule="nonzero"/></clipPath><clipPath id="fe48bbf55a"><path d="M 652 370 L 671 370 L 671 416 L 652 416 Z M 652 370 " clip-rule="nonzero"/></clipPath><clipPath id="c1870f1804"><path d="M 754.011719 555.167969 L 566.203125 421.964844 L 685.523438 253.730469 L 873.332031 386.9375 Z M 754.011719 555.167969 " clip-rule="nonzero"/></clipPath><clipPath id="3387c37000"><path d="M 754.011719 555.167969 L 566.203125 421.964844 L 685.523438 253.730469 L 873.332031 386.9375 Z M 754.011719 555.167969 " clip-rule="nonzero"/></clipPath><clipPath id="81346749b9"><path d="M 754.011719 555.167969 L 566.203125 421.964844 L 685.523438 253.730469 L 873.332031 386.9375 Z M 754.011719 555.167969 " clip-rule="nonzero"/></clipPath><clipPath id="bb381d12de"><path d="M 722 385 L 746 385 L 746 485 L 722 485 Z M 722 385 " clip-rule="nonzero"/></clipPath><clipPath id="d732572a97"><path d="M 754.011719 555.167969 L 566.203125 421.964844 L 685.523438 253.730469 L 873.332031 386.9375 Z M 754.011719 555.167969 " clip-rule="nonzero"/></clipPath><clipPath id="ce5d0b24e9"><path d="M 754.011719 555.167969 L 566.203125 421.964844 L 685.523438 253.730469 L 873.332031 386.9375 Z M 754.011719 555.167969 " clip-rule="nonzero"/></clipPath><clipPath id="52a813655e"><path d="M 754.011719 555.167969 L 566.203125 421.964844 L 685.523438 253.730469 L 873.332031 386.9375 Z M 754.011719 555.167969 " clip-rule="nonzero"/></clipPath><clipPath id="de5c687245"><path d="M 751 356 L 810 356 L 810 506 L 751 506 Z M 751 356 " clip-rule="nonzero"/></clipPath><clipPath id="4dc0e496c7"><path d="M 754.011719 555.167969 L 566.203125 421.964844 L 685.523438 253.730469 L 873.332031 386.9375 Z M 754.011719 555.167969 " clip-rule="nonzero"/></clipPath><clipPath id="6fdff9c6bd"><path d="M 754.011719 555.167969 L 566.203125 421.964844 L 685.523438 253.730469 L 873.332031 386.9375 Z M 754.011719 555.167969 " clip-rule="nonzero"/></clipPath><clipPath id="20206cb206"><path d="M 754.011719 555.167969 L 566.203125 421.964844 L 685.523438 253.730469 L 873.332031 386.9375 Z M 754.011719 555.167969 " clip-rule="nonzero"/></clipPath><clipPath id="6224519ff1"><path d="M 658 358 L 804 358 L 804 524 L 658 524 Z M 658 358 " clip-rule="nonzero"/></clipPath><clipPath id="3916abf8e9"><path d="M 754.011719 555.167969 L 566.203125 421.964844 L 685.523438 253.730469 L 873.332031 386.9375 Z M 754.011719 555.167969 " clip-rule="nonzero"/></clipPath><clipPath id="5139c7b1a0"><path d="M 754.011719 555.167969 L 566.203125 421.964844 L 685.523438 253.730469 L 873.332031 386.9375 Z M 754.011719 555.167969 " clip-rule="nonzero"/></clipPath><clipPath id="87fc312681"><path d="M 754.011719 555.167969 L 566.203125 421.964844 L 685.523438 253.730469 L 873.332031 386.9375 Z M 754.011719 555.167969 " clip-rule="nonzero"/></clipPath><clipPath id="baf84009ad"><path d="M 659 379 L 784 379 L 784 524 L 659 524 Z M 659 379 " clip-rule="nonzero"/></clipPath><clipPath id="2a9f1ec433"><path d="M 754.011719 555.167969 L 566.203125 421.964844 L 685.523438 253.730469 L 873.332031 386.9375 Z M 754.011719 555.167969 " clip-rule="nonzero"/></clipPath><clipPath id="5c334f14a1"><path d="M 754.011719 555.167969 L 566.203125 421.964844 L 685.523438 253.730469 L 873.332031 386.9375 Z M 754.011719 555.167969 " clip-rule="nonzero"/></clipPath><clipPath id="69c08ece1c"><path d="M 754.011719 555.167969 L 566.203125 421.964844 L 685.523438 253.730469 L 873.332031 386.9375 Z M 754.011719 555.167969 " clip-rule="nonzero"/></clipPath><clipPath id="b617605cd5"><path d="M 704 412 L 744 412 L 744 514 L 704 514 Z M 704 412 " clip-rule="nonzero"/></clipPath><clipPath id="42986af289"><path d="M 754.011719 555.167969 L 566.203125 421.964844 L 685.523438 253.730469 L 873.332031 386.9375 Z M 754.011719 555.167969 " clip-rule="nonzero"/></clipPath><clipPath id="3af2074aa1"><path d="M 754.011719 555.167969 L 566.203125 421.964844 L 685.523438 253.730469 L 873.332031 386.9375 Z M 754.011719 555.167969 " clip-rule="nonzero"/></clipPath><clipPath id="43e6fee369"><path d="M 754.011719 555.167969 L 566.203125 421.964844 L 685.523438 253.730469 L 873.332031 386.9375 Z M 754.011719 555.167969 " clip-rule="nonzero"/></clipPath></defs><g clip-path="url(#e32251cfa5)"><g clip-path="url(#1a96e3352e)"><g clip-path="url(#81586e196a)"><g clip-path="url(#423512e50d)"><path fill="#ff953f" d="M 686.738281 358.832031 C 704.816406 354.949219 726.992188 373.675781 736.371094 385.199219 C 738.117188 387.335938 739.410156 389.226562 740.167969 390.664062 C 746.710938 403.265625 746.234375 418.214844 745.589844 432.386719 L 743.703125 474.382812 C 743.285156 483.984375 743.4375 496.652344 734.582031 503.042969 C 730.527344 506.03125 724.949219 506.851562 720.222656 505.171875 C 711.507812 502.078125 707.308594 491.75 707.707031 482.496094 C 708.121094 473.25 711.949219 464.554688 714.503906 455.65625 C 724.3125 421.488281 712.117188 383.640625 686.738281 358.832031 " fill-opacity="1" fill-rule="nonzero"/></g></g></g></g><g clip-path="url(#ae2ebe86dc)"><g clip-path="url(#f457422c68)"><g clip-path="url(#6b25e55b97)"><g clip-path="url(#2cc3ed1ee4)"><path fill="#f1721b" d="M 764.855469 356.429688 C 770.992188 357.261719 777.9375 362.347656 782.1875 368.382812 C 797.316406 389.84375 805.523438 409.9375 810.488281 435.738281 C 812 443.570312 812.019531 451.1875 810.910156 458.335938 C 810.15625 463.234375 808.894531 467.90625 807.199219 472.296875 C 800.648438 489.363281 787.890625 501.960938 775.617188 505.496094 C 775.023438 505.664062 774.429688 505.804688 773.84375 505.929688 C 783.101562 502.144531 787.867188 486.226562 789.140625 476.308594 C 790.414062 466.390625 787.652344 456.359375 783.542969 447.242188 C 779.457031 438.121094 774.027344 429.695312 769.539062 420.761719 C 760.625 403.097656 746.136719 380.535156 754.199219 362.441406 C 756.429688 357.394531 760.441406 355.800781 764.855469 356.429688 " fill-opacity="1" fill-rule="nonzero"/></g></g></g></g><g clip-path="url(#b97fba9b58)"><g clip-path="url(#bb23ed0e20)"><g clip-path="url(#843f843e84)"><g clip-path="url(#ca9588e97b)"><g clip-path="url(#0309ca2c4a)"><path fill="#ffe6d9" d="M 789.464844 327.460938 C 796.960938 339.492188 806.296875 353.371094 816.683594 363.027344 C 810.9375 376.078125 803.296875 388.273438 794.058594 399.113281 C 793.878906 399.332031 793.710938 399.535156 793.515625 399.738281 C 789.429688 404.566406 785.003906 409.078125 780.300781 413.320312 C 780.199219 413.394531 780.117188 413.507812 780.019531 413.613281 C 778.457031 408.371094 776.421875 403.140625 773.949219 398.039062 C 773.925781 397.972656 773.882812 397.894531 773.84375 397.84375 C 773.175781 396.433594 772.449219 395.03125 771.683594 393.652344 C 768.96875 388.652344 765.832031 383.867188 762.34375 379.472656 C 762.644531 378.949219 766.621094 371.78125 768.296875 368.761719 C 775.820312 355.179688 782.78125 342.105469 789.464844 327.460938 " fill-opacity="1" fill-rule="nonzero"/></g></g></g></g></g><g clip-path="url(#0686662c92)"><g clip-path="url(#8476891449)"><g clip-path="url(#cc2749bb21)"><g clip-path="url(#98ad86bf33)"><path fill="#ffd0c0" d="M 768.296875 368.761719 C 768.320312 368.832031 768.34375 368.867188 768.351562 368.925781 C 773.203125 383.929688 781.230469 389.992188 793.515625 399.738281 C 789.429688 404.566406 785.003906 409.078125 780.300781 413.320312 C 780.199219 413.394531 780.117188 413.507812 780.019531 413.613281 C 778.457031 408.371094 776.421875 403.140625 773.949219 398.039062 C 773.925781 397.972656 773.882812 397.894531 773.84375 397.84375 C 773.175781 396.433594 772.449219 395.03125 771.683594 393.652344 C 768.96875 388.652344 765.832031 383.867188 762.34375 379.472656 C 762.644531 378.949219 766.621094 371.78125 768.296875 368.761719 " fill-opacity="1" fill-rule="nonzero"/></g></g></g></g><g clip-path="url(#840220e79c)"><g clip-path="url(#dce890a789)"><g clip-path="url(#155c563228)"><g clip-path="url(#d83697850d)"><g clip-path="url(#029a18954e)"><path fill="#ffe6d9" d="M 621.65625 343.828125 C 620.703125 357.992188 619 374.652344 614.378906 388.089844 C 625.578125 396.871094 638.050781 403.996094 651.289062 409.175781 C 651.550781 409.285156 651.792969 409.382812 652.058594 409.46875 C 657.929688 411.789062 663.957031 413.664062 670.09375 415.175781 C 670.21875 415.195312 670.347656 415.257812 670.480469 415.300781 C 669.394531 409.941406 668.726562 404.363281 668.511719 398.695312 C 668.5 398.625 668.5 398.535156 668.511719 398.472656 C 668.4375 396.910156 668.417969 395.332031 668.445312 393.753906 C 668.488281 388.058594 669.003906 382.355469 670.015625 376.828125 C 669.503906 376.503906 662.628906 372.074219 659.730469 370.207031 C 646.714844 361.796875 634.433594 353.574219 621.65625 343.828125 " fill-opacity="1" fill-rule="nonzero"/></g></g></g></g></g><g clip-path="url(#fe48bbf55a)"><g clip-path="url(#c1870f1804)"><g clip-path="url(#3387c37000)"><g clip-path="url(#81346749b9)"><path fill="#ffd0c0" d="M 659.730469 370.207031 C 659.742188 370.277344 659.742188 370.324219 659.757812 370.375 C 662.535156 385.902344 658.308594 395.050781 652.058594 409.46875 C 657.929688 411.789062 663.957031 413.664062 670.09375 415.175781 C 670.21875 415.195312 670.347656 415.257812 670.480469 415.300781 C 669.394531 409.941406 668.726562 404.363281 668.511719 398.695312 C 668.5 398.625 668.5 398.535156 668.511719 398.472656 C 668.4375 396.910156 668.417969 395.332031 668.445312 393.753906 C 668.488281 388.058594 669.003906 382.355469 670.015625 376.828125 C 669.503906 376.503906 662.628906 372.074219 659.730469 370.207031 " fill-opacity="1" fill-rule="nonzero"/></g></g></g></g><g clip-path="url(#bb381d12de)"><g clip-path="url(#d732572a97)"><g clip-path="url(#ce5d0b24e9)"><g clip-path="url(#52a813655e)"><path fill="#f1721b" d="M 736.371094 385.199219 C 738.117188 387.335938 739.410156 389.226562 740.167969 390.664062 C 746.710938 403.265625 746.234375 418.214844 745.589844 432.386719 C 745.507812 434.246094 745.417969 436.121094 745.335938 437.976562 C 744.152344 445.257812 742.773438 452.507812 741.230469 459.753906 C 739.941406 465.855469 740.492188 476.121094 736.234375 481.105469 C 730.421875 487.9375 722.011719 483.328125 722.75 475.058594 C 723.867188 462.570312 728.765625 450.554688 731.160156 438.230469 C 733.90625 424.078125 740.175781 402.484375 737.164062 388.398438 C 736.921875 387.277344 736.664062 386.214844 736.371094 385.199219 " fill-opacity="1" fill-rule="nonzero"/></g></g></g></g><g clip-path="url(#de5c687245)"><g clip-path="url(#4dc0e496c7)"><g clip-path="url(#6fdff9c6bd)"><g clip-path="url(#20206cb206)"><path fill="#ff953f" d="M 764.855469 356.429688 C 764.917969 356.5625 765.125 356.800781 764.992188 356.839844 C 751.890625 360.804688 770.765625 395.960938 786.28125 414.125 C 802.855469 433.53125 807.101562 446.953125 809.125 463.582031 C 808.65625 466.65625 808.011719 469.558594 807.199219 472.296875 C 800.648438 489.363281 787.890625 501.960938 775.617188 505.496094 C 775.023438 505.664062 774.429688 505.804688 773.84375 505.929688 C 783.101562 502.144531 787.867188 486.226562 789.140625 476.308594 C 790.414062 466.390625 787.652344 456.359375 783.542969 447.242188 C 779.457031 438.121094 774.027344 429.695312 769.539062 420.761719 C 760.625 403.097656 746.136719 380.535156 754.199219 362.441406 C 756.429688 357.394531 760.441406 355.800781 764.855469 356.429688 " fill-opacity="1" fill-rule="nonzero"/></g></g></g></g><g clip-path="url(#6224519ff1)"><g clip-path="url(#3916abf8e9)"><g clip-path="url(#5139c7b1a0)"><g clip-path="url(#87fc312681)"><path fill="#ffbd5f" d="M 691.671875 358.632812 C 701.160156 361.621094 714.527344 375.296875 725.089844 390.382812 C 730.980469 398.828125 732.851562 408.246094 732.4375 418.121094 C 732.378906 419.636719 732.265625 421.15625 732.105469 422.6875 C 730.332031 439.175781 723.074219 456.707031 718.132812 473 C 716.546875 478.1875 714.667969 483.53125 715.492188 488.871094 C 716.292969 494.21875 720.929688 499.449219 726.289062 498.714844 C 730.359375 498.175781 733.394531 494.375 734.414062 490.367188 C 735.441406 486.382812 734.886719 482.179688 734.445312 478.078125 C 732.277344 458.164062 732.996094 437.929688 736.441406 418.1875 C 736.90625 415.472656 737.441406 412.785156 738.007812 410.078125 C 738.417969 408.203125 738.847656 406.296875 739.304688 404.414062 C 740.976562 397.550781 742.941406 390.78125 745.28125 384.121094 C 747.839844 376.738281 750.820312 369.492188 754.199219 362.441406 C 757.660156 392.046875 776.742188 407.402344 787.1875 424.9375 C 798.148438 443.398438 807.882812 454.609375 802.425781 475.40625 C 798.207031 491.441406 784.417969 503.554688 769.128906 509.980469 C 767.722656 510.5625 766.164062 511.238281 764.488281 511.988281 C 751.941406 517.496094 732.523438 526.183594 721.4375 522.875 C 699 516.15625 689.414062 493.824219 662.300781 436.558594 C 660.96875 433.742188 660.03125 430.6875 659.421875 427.480469 C 653.785156 397.644531 677.671875 354.230469 691.671875 358.632812 " fill-opacity="1" fill-rule="nonzero"/></g></g></g></g><g clip-path="url(#baf84009ad)"><g clip-path="url(#2a9f1ec433)"><g clip-path="url(#5c334f14a1)"><g clip-path="url(#69c08ece1c)"><path fill="#ffcc7b" d="M 686.53125 379.585938 C 697.285156 376.796875 717.15625 390.9375 723.667969 399.90625 C 728.355469 406.367188 731.109375 412.195312 732.4375 418.121094 C 732.378906 419.636719 732.265625 421.15625 732.105469 422.6875 C 730.332031 439.175781 723.074219 456.707031 718.132812 473 C 716.546875 478.1875 714.667969 483.53125 715.492188 488.871094 C 716.292969 494.21875 720.929688 499.449219 726.289062 498.714844 C 730.359375 498.175781 733.394531 494.375 734.414062 490.367188 C 735.441406 486.382812 734.886719 482.179688 734.445312 478.078125 C 732.277344 458.164062 732.996094 437.929688 736.441406 418.1875 C 736.90625 415.472656 737.441406 412.785156 738.007812 410.078125 C 738.417969 408.203125 738.847656 406.296875 739.304688 404.414062 C 740.976562 397.550781 742.941406 390.78125 745.28125 384.121094 C 748.277344 384.308594 752.597656 396.617188 754.5 399.519531 C 758.6875 405.894531 763.636719 411.730469 767.945312 418.03125 C 778.078125 432.863281 784.351562 450.703125 783.609375 468.6875 C 782.96875 484.851562 776.28125 501.007812 764.488281 511.988281 C 751.941406 517.496094 732.523438 526.183594 721.4375 522.875 C 699 516.15625 689.414062 493.824219 662.300781 436.558594 C 660.96875 433.742188 660.03125 430.6875 659.421875 427.480469 C 660.5 418.824219 663.242188 410.328125 666.558594 402.195312 C 670.507812 392.53125 676.433594 382.210938 686.53125 379.585938 " fill-opacity="1" fill-rule="nonzero"/></g></g></g></g><g clip-path="url(#b617605cd5)"><g clip-path="url(#42986af289)"><g clip-path="url(#3af2074aa1)"><g clip-path="url(#43e6fee369)"><path fill="#ffd78f" d="M 736.441406 418.1875 C 736.984375 416.410156 737.582031 414.644531 738.210938 412.902344 L 743.253906 486.21875 C 743.582031 491.050781 743.894531 496.003906 742.40625 500.609375 C 740.445312 506.640625 735.25 511.523438 729.105469 513.113281 C 722.96875 514.691406 716.054688 512.921875 711.445312 508.570312 C 705.878906 503.316406 703.996094 495.058594 704.75 487.429688 C 705.476562 479.808594 708.503906 472.617188 711.484375 465.558594 L 730.96875 419.46875 C 731.410156 420.527344 731.800781 421.59375 732.105469 422.6875 C 730.332031 439.175781 723.074219 456.707031 718.132812 473 C 716.546875 478.1875 714.667969 483.53125 715.492188 488.871094 C 716.292969 494.21875 720.929688 499.449219 726.289062 498.714844 C 730.359375 498.175781 733.394531 494.375 734.414062 490.367188 C 735.441406 486.382812 734.886719 482.179688 734.445312 478.078125 C 732.277344 458.164062 732.996094 437.929688 736.441406 418.1875 " fill-opacity="1" fill-rule="nonzero"/></g></g></g></g></svg>